HIERARCHY
ROOT SpineBase
{
  OFFSET 0.000000 0.000000 0.000000
  CHANNELS 6 Xposition Yposition Zposition Zrotation Xrotation Yrotation
  JOINT SpineMid
  {
    OFFSET 0.000000 28.950502 0.000000
    CHANNELS 3 Zrotation Xrotation Yrotation
    JOINT SpineShoulder
    {
      OFFSET 0.075503 21.546675 -0.786000
      CHANNELS 3 Zrotation Xrotation Yrotation
      JOINT Neck
      {
        OFFSET 0.048118 7.146624 -0.584755
        CHANNELS 3 Zrotation Xrotation Yrotation
        JOINT Head
        {
          OFFSET -3.397138 13.328262 -1.407845
          CHANNELS 3 Zrotation Xrotation Yrotation
          End Site
          {
            OFFSET 0 0 0
          }
        }
      }
      JOINT ShoulderLeft
      {
        OFFSET -17.420804 -2.933136 5.902591
        CHANNELS 3 Zrotation Xrotation Yrotation
        JOINT ElbowLeft
        {
          OFFSET -0.636087 -26.763633 0.571663
          CHANNELS 3 Zrotation Xrotation Yrotation
          JOINT WristLeft
          {
            OFFSET 0.640420 -21.443044 -5.727429
            CHANNELS 3 Zrotation Xrotation Yrotation
            JOINT HandLeft
            {
              OFFSET 0.345872 -4.368244 -1.683809
              CHANNELS 3 Zrotation Xrotation Yrotation
              JOINT HandTipLeft
              {
                OFFSET 0.564649 -6.320597 -1.147713
                CHANNELS 3 Zrotation Xrotation Yrotation
                End Site
                {
                  OFFSET 0 0 0
                }
              }
              JOINT ThumbLeft
              {
                OFFSET -2.544001 -1.727930 -1.854827
                CHANNELS 3 Zrotation Xrotation Yrotation
                End Site
                {
                  OFFSET 0 0 0
                }
              }
            }
          }
        }
      }
      JOINT ShoulderRight
      {
        OFFSET 14.534735 -2.840167 -8.272752
        CHANNELS 3 Zrotation Xrotation Yrotation
        JOINT ElbowRight
        {
          OFFSET 7.666083 -24.722712 1.604806
          CHANNELS 3 Zrotation Xrotation Yrotation
          JOINT WristRight
          {
            OFFSET -1.695313 -21.433231 -5.502986
            CHANNELS 3 Zrotation Xrotation Yrotation
            JOINT HandRight
            {
              OFFSET -2.187740 -5.619979 -1.943952
              CHANNELS 3 Zrotation Xrotation Yrotation
              JOINT HandTipRight
              {
                OFFSET -0.673428 -3.683421 -0.921417
                CHANNELS 3 Zrotation Xrotation Yrotation
                End Site
                {
                  OFFSET 0 0 0
                }
              }
              JOINT ThumbRight
              {
                OFFSET -3.047259 -0.447585 -0.536109
                CHANNELS 3 Zrotation Xrotation Yrotation
                End Site
                {
                  OFFSET 0 0 0
                }
              }
            }
          }
        }
      }
    }
  }
  JOINT HipLeft
  {
    OFFSET -6.517839 0.451833 -0.566164
    CHANNELS 3 Zrotation Xrotation Yrotation
    JOINT KneeLeft
    {
      OFFSET 1.486453 -28.893344 4.484711
      CHANNELS 3 Zrotation Xrotation Yrotation
      JOINT AnkleLeft
      {
        OFFSET 4.194605 -33.448125 6.005701
        CHANNELS 3 Zrotation Xrotation Yrotation
        JOINT FootLeft
        {
          OFFSET -1.217217 -6.822174 -7.224381
          CHANNELS 3 Zrotation Xrotation Yrotation
          End Site
          {
            OFFSET 0 0 0
          }
        }
      }
    }
  }
  JOINT HipRight
  {
    OFFSET 7.004775 1.192003 -6.205557
    CHANNELS 3 Zrotation Xrotation Yrotation
    JOINT KneeRight
    {
      OFFSET 4.851402 -28.252188 2.898963
      CHANNELS 3 Zrotation Xrotation Yrotation
      JOINT AnkleRight
      {
        OFFSET 0.191407 -33.715275 7.493468
        CHANNELS 3 Zrotation Xrotation Yrotation
        JOINT FootRight
        {
          OFFSET -2.960204 -7.706162 -4.766398
          CHANNELS 3 Zrotation Xrotation Yrotation
          End Site
          {
            OFFSET 0 0 0
          }
        }
      }
    }
  }
}
MOTION
Frames: 6
Frame Time: 0.033333
-26.515849 72.186518 358.034393 -0.000000 0.000000 22.637809 -0.000000 0.000000 -22.637809 -0.000000 0.000000 0.000000 -0.000000 0.000000 0.000000 0.000000 0.000000 0.000000 -0.000000 0.000000 0.000000 -0.000000 0.000000 0.000000 -0.000000 0.000000 0.000000 -0.000000 0.000000 0.000000 0.000000 0.000000 0.000000 0.000000 0.000000 0.000000 -0.000000 0.000000 0.000000 -0.000000 0.000000 0.000000 -0.000000 0.000000 0.000000 -0.000000 0.000000 0.000000 0.000000 0.000000 0.000000 0.000000 0.000000 0.000000 -0.000000 0.000000 -22.637809 -0.000000 0.000000 0.000000 -0.000000 0.000000 0.000000 0.000000 0.000000 0.000000 -0.000000 0.000000 -22.637809 -0.000000 0.000000 0.000000 -0.000000 0.000000 0.000000 0.000000 0.000000 0.000000
-26.560308 72.262756 357.953823 -0.030402 0.059231 22.698967 0.005190 -0.066375 -22.698949 -0.000000 0.000000 0.000000 -0.000000 0.000000 0.000000 0.000000 0.000000 0.000000 -0.000000 0.000000 0.000000 -0.000000 0.000000 0.000000 -0.000000 0.000000 0.000000 3.407254 -1.961597 -0.736111 0.000000 0.000000 0.000000 0.000000 0.000000 0.000000 -0.000000 0.000000 0.000000 -0.000000 0.000000 0.000000 -0.000000 0.000000 0.000000 7.113022 -2.843275 -1.104314 0.000000 0.000000 0.000000 0.000000 0.000000 0.000000 0.005190 -0.066375 -22.698949 -0.000000 0.000000 0.000000 -1.564202 3.950738 0.967584 0.000000 0.000000 0.000000 0.005190 -0.066375 -22.698949 -0.000000 0.000000 0.000000 -3.450304 -1.107511 2.512355 0.000000 0.000000 0.000000
-26.602247 72.325677 357.882301 -0.056006 0.106760 22.752671 0.010358 -0.120113 -22.752608 -0.000000 0.000000 0.000000 -0.000000 0.000000 0.000000 0.000000 0.000000 0.000000 -0.000000 0.000000 0.000000 -0.000000 0.000000 0.000000 -0.685624 0.714523 0.324512 6.561439 -4.248162 -1.446058 0.000000 0.000000 0.000000 0.000000 0.000000 0.000000 -0.000000 0.000000 0.000000 -0.000000 0.000000 0.000000 0.856630 0.405535 -0.457982 10.949134 -5.125471 -1.094055 0.000000 0.000000 0.000000 0.000000 0.000000 0.000000 0.010358 -0.120113 -22.752608 -0.000000 0.000000 0.000000 -2.736645 6.682276 1.748998 0.000000 0.000000 0.000000 0.010358 -0.120113 -22.752608 0.981273 0.667465 0.216443 -7.318861 -2.778257 4.273821 0.000000 0.000000 0.000000
-26.641664 72.375281 357.819827 -0.076770 0.142495 22.798295 0.015557 -0.161110 -22.798178 -0.000000 0.000000 0.000000 -0.000000 0.000000 0.000000 0.000000 0.000000 0.000000 -0.000000 0.000000 0.000000 -0.000000 0.000000 0.000000 -0.898769 0.816383 0.416609 8.489617 -5.544633 -1.786624 0.000000 0.000000 0.000000 0.000000 0.000000 0.000000 -0.000000 0.000000 0.000000 -0.000000 0.000000 0.000000 1.154714 0.504620 -0.602394 13.543285 -6.447964 -1.137812 0.000000 0.000000 0.000000 0.000000 0.000000 0.000000 0.015557 -0.161110 -22.798178 -0.000000 0.000000 0.000000 -3.524836 8.333434 2.309982 0.000000 0.000000 0.000000 0.015557 -0.161110 -22.798178 1.329332 0.903311 0.290605 -9.924517 -3.856235 5.715939 0.000000 0.000000 0.000000
-26.678561 72.411567 357.766400 -0.092659 0.166365 22.835333 0.020834 -0.189286 -22.835164 -0.000000 0.000000 0.000000 -0.000000 0.000000 0.000000 0.000000 0.000000 0.000000 -0.000000 0.000000 0.000000 -0.000000 0.000000 0.000000 -1.035138 0.761147 0.465304 9.690340 -6.361706 -1.990526 0.000000 0.000000 0.000000 0.000000 0.000000 0.000000 -0.000000 0.000000 0.000000 -0.000000 0.000000 0.000000 1.367474 0.536763 -0.690471 14.839464 -7.183289 -1.101568 0.000000 0.000000 0.000000 0.000000 0.000000 0.000000 0.020834 -0.189286 -22.835164 -0.000000 0.000000 0.000000 -3.936036 9.000380 2.634262 0.000000 0.000000 0.000000 0.020834 -0.189286 -22.835164 1.581101 1.072260 0.343411 -11.782252 -4.635542 6.708313 0.000000 0.000000 0.000000
-26.712937 72.434535 357.722022 -0.103648 0.178319 22.863397 0.026222 -0.204580 -22.863189 -0.000000 0.000000 0.000000 -0.000000 0.000000 0.000000 0.000000 0.000000 0.000000 -0.000000 0.000000 0.000000 -0.000000 0.000000 0.000000 -1.098363 0.550373 0.471730 10.232597 -6.733802 -2.098308 0.000000 0.000000 0.000000 0.000000 0.000000 0.000000 -0.000000 0.000000 0.000000 -0.000000 0.000000 0.000000 1.495608 0.502739 -0.722194 15.039724 -7.425729 -1.047317 0.000000 0.000000 0.000000 0.000000 0.000000 0.000000 0.026222 -0.204580 -22.863189 -0.000000 0.000000 0.000000 -3.973784 8.726062 2.716301 0.000000 0.000000 0.000000 0.026222 -0.204580 -22.863189 1.736259 1.173719 0.375625 -12.883827 -5.076708 7.270911 0.000000 0.000000 0.000000
